<?xml version="1.0" encoding="UTF-8" standalone="no"?>
<!-- Created with Inkscape (http://www.inkscape.org/) -->

<svg
   width="23.177496mm"
   height="2.921mm"
   viewBox="0 0 23.177496 2.921"
   version="1.1"
   id="svg1"
   xml:space="preserve"
   xmlns="http://www.w3.org/2000/svg"
   xmlns:svg="http://www.w3.org/2000/svg"><defs
     id="defs1"><rect
       x="162.05856"
       y="242.30116"
       width="494.04266"
       height="283.20917"
       id="rect1" /></defs><g
     id="layer1"
     transform="translate(-63.728322,-71.015222)"><text
       xml:space="preserve"
       transform="scale(0.26458333)"
       id="text1"
       style="text-align:start;writing-mode:lr-tb;direction:ltr;white-space:pre;shape-inside:url(#rect1);display:inline;fill:#fdfdf7" /><g
       id="text4"
       style="font-weight:800;font-size:3.175px;font-family:'PP Kyoto';-inkscape-font-specification:'PP Kyoto Ultra-Bold';stroke-width:0.264583"
       aria-label="Keepwell Group"><g
         id="g7"
         style="display:inline"><path
           style="font-family:'Greycliff CF';-inkscape-font-specification:'Greycliff CF Ultra-Bold'"
           d="m 65.560297,73.275827 -0.84455,-1.209675 0.777875,-0.898525 c 0.02222,-0.02857 0.01587,-0.05715 -0.0254,-0.05715 h -0.4953 c -0.02222,0 -0.04127,0.0063 -0.05715,0.0254 l -0.695325,0.847725 v -0.8255 c 0,-0.02858 -0.01905,-0.04762 -0.04762,-0.04762 h -0.396875 c -0.02858,0 -0.04763,0.01905 -0.04763,0.04762 v 2.12725 c 0,0.02858 0.01905,0.04762 0.04763,0.04762 h 0.396875 c 0.02858,0 0.04762,-0.01905 0.04762,-0.04762 v -0.6477 l 0.168275,-0.193675 0.61595,0.860425 c 0.01587,0.02223 0.03175,0.02858 0.05715,0.02858 h 0.4699 c 0.0381,0 0.0508,-0.0254 0.02858,-0.05715 z m 1.597028,-0.75565 c 0,-0.4191 -0.288925,-0.7747 -0.739775,-0.7747 -0.454025,0 -0.790575,0.3556 -0.790575,0.803275 0,0.447675 0.33655,0.80645 0.8255,0.80645 0.225425,0 0.428625,-0.0889 0.57785,-0.238125 0.0254,-0.0254 0.0254,-0.04762 0.0063,-0.06985 l -0.1651,-0.15875 c -0.02223,-0.02222 -0.04128,-0.0254 -0.06985,-0.0063 -0.111125,0.06985 -0.200025,0.09208 -0.301625,0.09208 -0.212725,0 -0.352425,-0.0889 -0.40005,-0.257175 h 0.942975 c 0.09843,0 0.1143,-0.06668 0.1143,-0.19685 z m -0.7366,-0.371475 c 0.1524,0 0.282575,0.08572 0.314325,0.2667 H 66.0937 c 0.03493,-0.180975 0.168275,-0.2667 0.327025,-0.2667 z m 2.530477,0.371475 c 0,-0.4191 -0.288925,-0.7747 -0.739775,-0.7747 -0.454025,0 -0.790575,0.3556 -0.790575,0.803275 0,0.447675 0.33655,0.80645 0.8255,0.80645 0.225425,0 0.428625,-0.0889 0.57785,-0.238125 0.0254,-0.0254 0.0254,-0.04762 0.0063,-0.06985 l -0.1651,-0.15875 c -0.02223,-0.02222 -0.04127,-0.0254 -0.06985,-0.0063 -0.111125,0.06985 -0.200025,0.09208 -0.301625,0.09208 -0.212725,0 -0.352425,-0.0889 -0.40005,-0.257175 h 0.942975 c 0.09843,0 0.1143,-0.06668 0.1143,-0.19685 z m -0.7366,-0.371475 c 0.1524,0 0.282575,0.08572 0.314325,0.2667 h -0.64135 c 0.03493,-0.180975 0.168275,-0.2667 0.327025,-0.2667 z m 1.946274,-0.403225 c -0.19685,0 -0.3429,0.0889 -0.447675,0.22225 l -0.01587,-0.142875 c -0.0032,-0.02858 -0.01905,-0.04763 -0.04763,-0.04763 h -0.32385 c -0.02858,0 -0.04762,0.01905 -0.04762,0.04763 v 2.06375 c 0,0.02857 0.01905,0.04762 0.04762,0.04762 h 0.381 c 0.02858,0 0.04762,-0.01905 0.04762,-0.04762 v -0.695325 c 0.09525,0.09843 0.2286,0.161925 0.4064,0.161925 0.434975,0 0.752475,-0.352425 0.752475,-0.796925 0,-0.454025 -0.3175,-0.8128 -0.752475,-0.8128 z m -0.05715,1.17475 c -0.20955,0 -0.34925,-0.1524 -0.34925,-0.365125 0,-0.20955 0.1397,-0.37465 0.34925,-0.37465 0.2032,0 0.352425,0.1524 0.352425,0.37465 0,0.2159 -0.149225,0.365125 -0.352425,0.365125 z m 3.625847,-1.143 h -0.37465 c -0.0254,0 -0.04762,0.0127 -0.05715,0.0381 l -0.320675,0.95885 -0.339725,-0.95885 c -0.0063,-0.01587 -0.01587,-0.02857 -0.03175,-0.03175 -0.0063,-0.0032 -0.01587,-0.0063 -0.0254,-0.0063 h -0.352425 c -0.0095,0 -0.01905,0.0032 -0.0254,0.0063 -0.01588,0.0032 -0.0254,0.01588 -0.03175,0.03175 l -0.33655,0.95885 -0.32385,-0.95885 c -0.0095,-0.0254 -0.03175,-0.0381 -0.05715,-0.0381 h -0.37465 c -0.03493,0 -0.0508,0.01905 -0.0381,0.05398 l 0.53975,1.463675 c 0.0095,0.0254 0.03175,0.0381 0.05715,0.0381 h 0.365125 c 0.0254,0 0.04762,-0.0127 0.05715,-0.0381 l 0.3429,-0.9017 0.3429,0.9017 c 0.0095,0.0254 0.03175,0.0381 0.05715,0.0381 h 0.3683 c 0.0254,0 0.04762,-0.0127 0.05715,-0.0381 l 0.53975,-1.463675 c 0.0127,-0.03493 -0.0032,-0.05398 -0.0381,-0.05398 z m 1.695447,0.74295 c 0,-0.4191 -0.288925,-0.7747 -0.739775,-0.7747 -0.454025,0 -0.790575,0.3556 -0.790575,0.803275 0,0.447675 0.33655,0.80645 0.8255,0.80645 0.225425,0 0.428625,-0.0889 0.57785,-0.238125 0.0254,-0.0254 0.0254,-0.04762 0.0064,-0.06985 l -0.1651,-0.15875 c -0.02222,-0.02222 -0.04127,-0.0254 -0.06985,-0.0063 -0.111125,0.06985 -0.200025,0.09208 -0.301625,0.09208 -0.212725,0 -0.352425,-0.0889 -0.40005,-0.257175 h 0.942975 c 0.09842,0 0.1143,-0.06668 0.1143,-0.19685 z m -0.7366,-0.371475 c 0.1524,0 0.282575,0.08572 0.314325,0.2667 h -0.64135 c 0.03493,-0.180975 0.168275,-0.2667 0.327025,-0.2667 z m 1.063623,-1.08585 v 2.2225 c 0,0.02858 0.01905,0.04762 0.04762,0.04762 h 0.381 c 0.02858,0 0.04762,-0.01905 0.04762,-0.04762 v -2.2225 c 0,-0.02858 -0.01905,-0.04763 -0.04762,-0.04763 h -0.381 c -0.02858,0 -0.04762,0.01905 -0.04762,0.04763 z m 0.885823,0 v 2.2225 c 0,0.02858 0.01905,0.04762 0.04762,0.04762 h 0.381 c 0.02858,0 0.04762,-0.01905 0.04762,-0.04762 v -2.2225 c 0,-0.02858 -0.01905,-0.04763 -0.04762,-0.04763 h -0.381 c -0.02858,0 -0.04762,0.01905 -0.04762,0.04763 z"
           id="path6" /><path
           style="font-weight:300;font-family:'Greycliff CF';-inkscape-font-specification:'Greycliff CF Light'"
           d="m 80.460567,72.202677 h -0.9398 c -0.02858,0 -0.04763,0.01905 -0.04763,0.04763 v 0.09525 c 0,0.02858 0.01905,0.04762 0.04763,0.04762 h 0.8001 c -0.0127,0.46355 -0.365125,0.7874 -0.8382,0.7874 -0.508,0 -0.9144,-0.409575 -0.9144,-0.95885 0,-0.536575 0.41275,-0.942975 0.9144,-0.942975 0.2413,0 0.43815,0.09208 0.6096,0.23495 0.02222,0.01905 0.04127,0.02223 0.06667,0 l 0.06668,-0.06667 c 0.0254,-0.02223 0.01905,-0.04763 -0.0032,-0.06668 -0.2032,-0.168275 -0.45085,-0.295275 -0.74295,-0.295275 -0.625475,0 -1.11125,0.508 -1.11125,1.13665 0,0.64135 0.473075,1.152525 1.114425,1.152525 0.635,0 1.025525,-0.454025 1.025525,-1.04775 v -0.0762 c 0,-0.02858 -0.01905,-0.04763 -0.04762,-0.04763 z m 1.171576,-0.415925 c -0.04445,-0.02858 -0.111125,-0.04445 -0.18415,-0.04445 -0.1651,0 -0.2921,0.08573 -0.381,0.212725 l -0.0127,-0.130175 c -0.0032,-0.02858 -0.01905,-0.04763 -0.04762,-0.04763 h -0.07937 c -0.02858,0 -0.04763,0.01905 -0.04763,0.04763 v 1.4605 c 0,0.02858 0.01905,0.04762 0.04763,0.04762 h 0.09525 c 0.02858,0 0.04762,-0.01905 0.04762,-0.04762 v -1.019175 c 0,-0.2032 0.161925,-0.34925 0.352425,-0.34925 0.06667,0 0.09525,0.0095 0.123825,0.01587 0.0254,0.0064 0.04127,0.0032 0.05397,-0.01905 l 0.0381,-0.07937 c 0.0127,-0.0254 0.0095,-0.0381 -0.0063,-0.04762 z m 0.923924,1.577975 c 0.4445,0 0.78105,-0.3556 0.78105,-0.809625 0,-0.4572 -0.33655,-0.8128 -0.78105,-0.8128 -0.4445,0 -0.784225,0.3556 -0.784225,0.8128 0,0.454025 0.339725,0.809625 0.784225,0.809625 z m 0,-0.17145 c -0.339725,0 -0.600075,-0.269875 -0.600075,-0.638175 0,-0.371475 0.26035,-0.64135 0.600075,-0.64135 0.33655,0 0.600075,0.269875 0.600075,0.64135 0,0.3683 -0.263525,0.638175 -0.600075,0.638175 z m 2.346328,-1.41605 h -0.09525 c -0.02858,0 -0.04763,0.01905 -0.04763,0.04763 v 0.981075 c 0,0.09525 -0.1778,0.4064 -0.4953,0.4064 -0.254,0 -0.3937,-0.17145 -0.3937,-0.454025 v -0.93345 c 0,-0.02858 -0.01905,-0.04763 -0.04762,-0.04763 h -0.09525 c -0.02857,0 -0.04762,0.01905 -0.04762,0.04763 v 0.93345 c 0,0.415925 0.2159,0.61595 0.5715,0.61595 0.23495,0 0.40005,-0.123825 0.508,-0.282575 l 0.0127,0.193675 c 0.0032,0.02858 0.01905,0.04762 0.04762,0.04762 h 0.08255 c 0.02858,0 0.04762,-0.01905 0.04762,-0.04762 v -1.4605 c 0,-0.02858 -0.01905,-0.04763 -0.04762,-0.04763 z m 1.238253,-0.03175 c -0.254,0 -0.45085,0.117475 -0.574675,0.295275 l -0.0095,-0.2159 c -0.0032,-0.02858 -0.01905,-0.04763 -0.04762,-0.04763 h -0.09208 c -0.02858,0 -0.04762,0.01905 -0.04762,0.04763 v 2.06375 c 0,0.02857 0.01905,0.04762 0.04762,0.04762 h 0.09525 c 0.02857,0 0.04762,-0.01905 0.04762,-0.04762 v -0.657225 l 0.0095,-0.15875 c 0.127,0.17145 0.32385,0.282575 0.5715,0.282575 0.447675,0 0.765175,-0.36195 0.765175,-0.796925 0,-0.454025 -0.3175,-0.8128 -0.765175,-0.8128 z m -0.0127,1.438275 c -0.33655,0 -0.587375,-0.2794 -0.587375,-0.62865 0,-0.346075 0.250825,-0.638175 0.587375,-0.638175 0.3429,0 0.593725,0.27305 0.593725,0.638175 0,0.34925 -0.250825,0.62865 -0.593725,0.62865 z"
           id="path7" /></g></g><g
       style="clip-rule:evenodd;fill-rule:evenodd;stroke-linejoin:round;stroke-miterlimit:1.41421"
       id="g6"
       transform="matrix(0.26458333,0,0,0.26458333,51.540149,47.218362)" /></g></svg>
